<mxfile host="app.diagrams.net" agent="Mozilla/5.0 (Windows NT 10.0; Win64; x64) AppleWebKit/537.36 (KHTML, like Gecko) Chrome/134.0.0.0 Safari/537.36 Edg/134.0.0.0" version="26.1.1">
  <diagram name="Page-1" id="2YBvvXClWsGukQMizWep">
    <mxGraphModel dx="1243" dy="686" grid="1" gridSize="10" guides="1" tooltips="1" connect="1" arrows="1" fold="1" page="1" pageScale="1" pageWidth="850" pageHeight="1100" math="1" shadow="0">
      <root>
        <mxCell id="0" />
        <mxCell id="1" parent="0" />
        <mxCell id="nPK_Jr20QUEXBmqKb91o-21" value="" style="rounded=1;whiteSpace=wrap;html=1;fillColor=#dae8fc;strokeColor=light-dark(#c5d3e8, #5c79a3);fillStyle=auto;" vertex="1" parent="1">
          <mxGeometry x="320" y="270" width="450" height="180" as="geometry" />
        </mxCell>
        <mxCell id="DWYbo6EPviUSRNX71duz-3" style="edgeStyle=orthogonalEdgeStyle;rounded=0;orthogonalLoop=1;jettySize=auto;html=1;exitX=0.5;exitY=1;exitDx=0;exitDy=0;" parent="1" source="DWYbo6EPviUSRNX71duz-1" target="DWYbo6EPviUSRNX71duz-4" edge="1">
          <mxGeometry relative="1" as="geometry">
            <mxPoint x="155" y="280" as="targetPoint" />
            <Array as="points">
              <mxPoint x="195" y="220" />
              <mxPoint x="155" y="220" />
            </Array>
          </mxGeometry>
        </mxCell>
        <mxCell id="nPK_Jr20QUEXBmqKb91o-20" style="edgeStyle=none;rounded=0;orthogonalLoop=1;jettySize=auto;html=1;entryX=0.5;entryY=0;entryDx=0;entryDy=0;exitX=0.67;exitY=0.963;exitDx=0;exitDy=0;exitPerimeter=0;" edge="1" parent="1" source="DWYbo6EPviUSRNX71duz-1" target="nPK_Jr20QUEXBmqKb91o-12">
          <mxGeometry relative="1" as="geometry">
            <mxPoint x="195" y="290" as="targetPoint" />
            <Array as="points">
              <mxPoint x="270" y="220" />
              <mxPoint x="270" y="260" />
            </Array>
          </mxGeometry>
        </mxCell>
        <mxCell id="DWYbo6EPviUSRNX71duz-1" value="&lt;font style=&quot;font-size: 16px;&quot; face=&quot;Times New Roman&quot;&gt;DDIM&lt;/font&gt;&lt;div&gt;&lt;font style=&quot;font-size: 16px;&quot; face=&quot;Times New Roman&quot;&gt;Inversion&lt;/font&gt;&lt;/div&gt;" style="rounded=1;whiteSpace=wrap;html=1;fillColor=#dae8fc;strokeColor=light-dark(#a3c9ff, #1d293b);" parent="1" vertex="1">
          <mxGeometry x="90" y="190" width="210" height="60" as="geometry" />
        </mxCell>
        <mxCell id="nPK_Jr20QUEXBmqKb91o-35" style="edgeStyle=orthogonalEdgeStyle;rounded=0;orthogonalLoop=1;jettySize=auto;html=1;exitX=0;exitY=0.5;exitDx=0;exitDy=0;entryX=0;entryY=0.5;entryDx=0;entryDy=0;curved=1;dashed=1;targetPerimeterSpacing=-50;startSize=6;" edge="1" parent="1">
          <mxGeometry relative="1" as="geometry">
            <mxPoint x="135.00000000000114" y="310" as="sourcePoint" />
            <mxPoint x="135.00000000000114" y="500" as="targetPoint" />
            <Array as="points">
              <mxPoint x="110" y="310" />
              <mxPoint x="110" y="500" />
            </Array>
          </mxGeometry>
        </mxCell>
        <mxCell id="DWYbo6EPviUSRNX71duz-4" value="&lt;div&gt;&lt;font face=&quot;Source Code Pro, DejaVu Sans Mono, Ubuntu Mono, Anonymous Pro, Droid Sans Mono, Menlo, Monaco, Consolas, Inconsolata, Courier, monospace, PingFang SC, Microsoft YaHei, sans-serif&quot;&gt;&lt;span style=&quot;font-variant-ligatures: no-common-ligatures; white-space: pre;&quot;&gt;$$Z_N^o$$&lt;/span&gt;&lt;/font&gt;&lt;/div&gt;" style="ellipse;whiteSpace=wrap;html=1;aspect=fixed;align=center;fontSize=14;strokeColor=#999999;fillColor=#66B2FF;dashed=1;" parent="1" vertex="1">
          <mxGeometry x="135.5" y="290" width="39" height="39" as="geometry" />
        </mxCell>
        <mxCell id="nPK_Jr20QUEXBmqKb91o-17" style="edgeStyle=none;rounded=0;orthogonalLoop=1;jettySize=auto;html=1;" edge="1" parent="1" source="nPK_Jr20QUEXBmqKb91o-12">
          <mxGeometry relative="1" as="geometry">
            <mxPoint x="341" y="310" as="targetPoint" />
          </mxGeometry>
        </mxCell>
        <mxCell id="nPK_Jr20QUEXBmqKb91o-12" value="&lt;div&gt;&lt;font face=&quot;Source Code Pro, DejaVu Sans Mono, Ubuntu Mono, Anonymous Pro, Droid Sans Mono, Menlo, Monaco, Consolas, Inconsolata, Courier, monospace, PingFang SC, Microsoft YaHei, sans-serif&quot;&gt;&lt;span style=&quot;font-variant-ligatures: no-common-ligatures; white-space: pre;&quot;&gt;$$Z_N^t$$&lt;/span&gt;&lt;/font&gt;&lt;/div&gt;" style="ellipse;whiteSpace=wrap;html=1;aspect=fixed;align=center;fontSize=14;strokeColor=#d6b656;fillColor=light-dark(#f5dc8e, #281d00);" vertex="1" parent="1">
          <mxGeometry x="250" y="290" width="39" height="39" as="geometry" />
        </mxCell>
        <mxCell id="nPK_Jr20QUEXBmqKb91o-22" value="&lt;div style=&quot;padding-top: 0px; padding-left: 0px; margin-top: 0px; line-height: 140%;&quot;&gt;&lt;font style=&quot;font-size: 14px;&quot; face=&quot;Times New Roman&quot;&gt;&lt;b&gt;Unet&lt;/b&gt;&lt;/font&gt;&lt;/div&gt;&lt;div style=&quot;line-height: 190%; padding-top: 0px; padding-left: 0px; margin-top: 0px;&quot;&gt;&lt;font style=&quot;font-size: 14px;&quot; face=&quot;Times New Roman&quot;&gt;&lt;b&gt;&lt;br&gt;&lt;/b&gt;&lt;/font&gt;&lt;/div&gt;&lt;div style=&quot;line-height: 190%; padding-top: 0px; padding-left: 0px; margin-top: 0px;&quot;&gt;&lt;font style=&quot;font-size: 14px;&quot; face=&quot;Times New Roman&quot;&gt;&lt;b&gt;&lt;br&gt;&lt;/b&gt;&lt;/font&gt;&lt;/div&gt;&lt;div style=&quot;line-height: 190%; padding-top: 0px; padding-left: 0px; margin-top: 0px;&quot;&gt;&lt;font style=&quot;font-size: 14px;&quot; face=&quot;Times New Roman&quot;&gt;&lt;b&gt;&lt;br&gt;&lt;/b&gt;&lt;/font&gt;&lt;/div&gt;&lt;div style=&quot;line-height: 190%; padding-top: 0px; padding-left: 0px; margin-top: 0px;&quot;&gt;&lt;br&gt;&lt;/div&gt;" style="rounded=1;whiteSpace=wrap;html=1;strokeColor=light-dark(#ffffff, #272727);fillColor=#d5e8d4;horizontal=1;verticalAlign=middle;fontSize=11;" vertex="1" parent="1">
          <mxGeometry x="342.5" y="290" width="190" height="110" as="geometry" />
        </mxCell>
        <mxCell id="nPK_Jr20QUEXBmqKb91o-23" value="" style="shape=trapezoid;perimeter=trapezoidPerimeter;whiteSpace=wrap;html=1;fixedSize=1;rotation=90;fillColor=#71DCE3;strokeColor=light-dark(#3c7915, #73b14c);fontColor=#ffffff;flipH=0;" vertex="1" parent="1">
          <mxGeometry x="340" y="317.5" width="80" height="55" as="geometry" />
        </mxCell>
        <mxCell id="nPK_Jr20QUEXBmqKb91o-24" value="" style="shape=trapezoid;perimeter=trapezoidPerimeter;whiteSpace=wrap;html=1;fixedSize=1;rotation=-90;fillColor=#71DCE3;strokeColor=light-dark(#3c7915, #73b14c);fontColor=#ffffff;flipH=0;" vertex="1" parent="1">
          <mxGeometry x="450" y="317.5" width="80" height="55" as="geometry" />
        </mxCell>
        <mxCell id="nPK_Jr20QUEXBmqKb91o-38" style="edgeStyle=none;rounded=0;orthogonalLoop=1;jettySize=auto;html=1;exitX=1;exitY=0.5;exitDx=0;exitDy=0;entryX=0.5;entryY=0;entryDx=0;entryDy=0;" edge="1" parent="1" source="nPK_Jr20QUEXBmqKb91o-25" target="nPK_Jr20QUEXBmqKb91o-37">
          <mxGeometry relative="1" as="geometry" />
        </mxCell>
        <mxCell id="nPK_Jr20QUEXBmqKb91o-25" value="$$h$$" style="rounded=0;whiteSpace=wrap;html=1;rotation=90;flipH=0;fillColor=light-dark(#e87c73, #ff9281);fontColor=default;strokeColor=#3C7915;horizontal=0;fontFamily=Georgia;fontStyle=1" vertex="1" parent="1">
          <mxGeometry x="412.5" y="335" width="50" height="20" as="geometry" />
        </mxCell>
        <mxCell id="nPK_Jr20QUEXBmqKb91o-62" style="edgeStyle=orthogonalEdgeStyle;rounded=0;orthogonalLoop=1;jettySize=auto;html=1;strokeColor=#FF0000;dashed=1;exitX=0;exitY=0.5;exitDx=0;exitDy=0;" edge="1" parent="1" source="nPK_Jr20QUEXBmqKb91o-40">
          <mxGeometry relative="1" as="geometry">
            <mxPoint x="166" y="478" as="targetPoint" />
            <mxPoint x="470" y="460" as="sourcePoint" />
            <Array as="points">
              <mxPoint x="167" y="438" />
              <mxPoint x="167" y="478" />
            </Array>
          </mxGeometry>
        </mxCell>
        <mxCell id="nPK_Jr20QUEXBmqKb91o-37" value="&lt;b&gt;$$L_{adv}$$&lt;/b&gt;" style="rounded=0;whiteSpace=wrap;html=1;fillColor=light-dark(#fde6a0, #281d00);strokeColor=none;" vertex="1" parent="1">
          <mxGeometry x="400.5" y="410" width="74" height="20" as="geometry" />
        </mxCell>
        <mxCell id="nPK_Jr20QUEXBmqKb91o-43" value="" style="group;fillColor=none;" vertex="1" connectable="0" parent="1">
          <mxGeometry x="552.5" y="431" width="15" height="20" as="geometry" />
        </mxCell>
        <mxCell id="nPK_Jr20QUEXBmqKb91o-40" value="" style="ellipse;whiteSpace=wrap;html=1;aspect=fixed;fillColor=none;" vertex="1" parent="nPK_Jr20QUEXBmqKb91o-43">
          <mxGeometry width="13.499999999999993" height="13.499999999999993" as="geometry" />
        </mxCell>
        <mxCell id="nPK_Jr20QUEXBmqKb91o-41" value="" style="endArrow=none;html=1;rounded=0;entryX=0.5;entryY=0;entryDx=0;entryDy=0;exitX=0.5;exitY=1;exitDx=0;exitDy=0;" edge="1" parent="nPK_Jr20QUEXBmqKb91o-43" source="nPK_Jr20QUEXBmqKb91o-40" target="nPK_Jr20QUEXBmqKb91o-40">
          <mxGeometry width="50" height="50" relative="1" as="geometry">
            <mxPoint x="-43.125" y="50" as="sourcePoint" />
            <mxPoint x="-5.625" as="targetPoint" />
          </mxGeometry>
        </mxCell>
        <mxCell id="nPK_Jr20QUEXBmqKb91o-42" value="" style="endArrow=none;html=1;rounded=0;entryX=1;entryY=0.5;entryDx=0;entryDy=0;exitX=0;exitY=0.5;exitDx=0;exitDy=0;" edge="1" parent="nPK_Jr20QUEXBmqKb91o-43" source="nPK_Jr20QUEXBmqKb91o-40" target="nPK_Jr20QUEXBmqKb91o-40">
          <mxGeometry width="50" height="50" relative="1" as="geometry">
            <mxPoint x="15.374999999999995" y="30" as="sourcePoint" />
            <mxPoint x="15.374999999999995" y="10" as="targetPoint" />
          </mxGeometry>
        </mxCell>
        <mxCell id="nPK_Jr20QUEXBmqKb91o-47" value="" style="endArrow=classic;html=1;rounded=0;exitX=1;exitY=0.5;exitDx=0;exitDy=0;entryX=0.5;entryY=0;entryDx=0;entryDy=0;" edge="1" parent="1" source="nPK_Jr20QUEXBmqKb91o-37" target="nPK_Jr20QUEXBmqKb91o-40">
          <mxGeometry width="50" height="50" relative="1" as="geometry">
            <mxPoint x="474.5" y="422" as="sourcePoint" />
            <mxPoint x="559.5" y="434" as="targetPoint" />
            <Array as="points">
              <mxPoint x="559" y="420" />
            </Array>
          </mxGeometry>
        </mxCell>
        <mxCell id="nPK_Jr20QUEXBmqKb91o-50" value="" style="edgeStyle=none;orthogonalLoop=1;jettySize=auto;html=1;rounded=0;" edge="1" parent="1">
          <mxGeometry width="80" relative="1" as="geometry">
            <mxPoint x="547.5" y="328.99999999999994" as="sourcePoint" />
            <mxPoint x="572.5" y="329.33" as="targetPoint" />
            <Array as="points" />
          </mxGeometry>
        </mxCell>
        <mxCell id="nPK_Jr20QUEXBmqKb91o-51" value="&lt;div&gt;&lt;font face=&quot;Source Code Pro, DejaVu Sans Mono, Ubuntu Mono, Anonymous Pro, Droid Sans Mono, Menlo, Monaco, Consolas, Inconsolata, Courier, monospace, PingFang SC, Microsoft YaHei, sans-serif&quot;&gt;&lt;span style=&quot;font-variant-ligatures: no-common-ligatures; white-space: pre;&quot;&gt;$$Z_{N-1}^o$$&lt;/span&gt;&lt;/font&gt;&lt;/div&gt;" style="ellipse;whiteSpace=wrap;html=1;aspect=fixed;align=center;fontSize=14;strokeColor=#999999;fillColor=#66B2FF;" vertex="1" parent="1">
          <mxGeometry x="580" y="310" width="39" height="39" as="geometry" />
        </mxCell>
        <mxCell id="nPK_Jr20QUEXBmqKb91o-52" value="&lt;div&gt;&lt;font face=&quot;Source Code Pro, DejaVu Sans Mono, Ubuntu Mono, Anonymous Pro, Droid Sans Mono, Menlo, Monaco, Consolas, Inconsolata, Courier, monospace, PingFang SC, Microsoft YaHei, sans-serif&quot;&gt;&lt;span style=&quot;font-variant-ligatures: no-common-ligatures; white-space: pre;&quot;&gt;$$Z_{N-1}^p$$&lt;/span&gt;&lt;/font&gt;&lt;/div&gt;" style="ellipse;whiteSpace=wrap;html=1;aspect=fixed;align=center;fontSize=14;strokeColor=#999999;fillColor=#97D077;" vertex="1" parent="1">
          <mxGeometry x="580" y="361" width="39" height="39" as="geometry" />
        </mxCell>
        <mxCell id="nPK_Jr20QUEXBmqKb91o-53" value="" style="edgeStyle=none;orthogonalLoop=1;jettySize=auto;html=1;rounded=0;" edge="1" parent="1">
          <mxGeometry width="80" relative="1" as="geometry">
            <mxPoint x="547.5" y="380.3399999999999" as="sourcePoint" />
            <mxPoint x="572.5" y="380.66999999999996" as="targetPoint" />
            <Array as="points" />
          </mxGeometry>
        </mxCell>
        <mxCell id="nPK_Jr20QUEXBmqKb91o-55" value="" style="endArrow=classic;startArrow=classic;html=1;rounded=0;edgeStyle=orthogonalEdgeStyle;curved=1;strokeWidth=1;startSize=6;targetPerimeterSpacing=0;" edge="1" parent="1">
          <mxGeometry width="50" height="50" relative="1" as="geometry">
            <mxPoint x="630" y="380" as="sourcePoint" />
            <mxPoint x="630" y="330" as="targetPoint" />
            <Array as="points">
              <mxPoint x="660" y="380" />
              <mxPoint x="660" y="330" />
            </Array>
          </mxGeometry>
        </mxCell>
        <mxCell id="nPK_Jr20QUEXBmqKb91o-59" style="edgeStyle=orthogonalEdgeStyle;rounded=0;orthogonalLoop=1;jettySize=auto;html=1;exitX=0.5;exitY=1;exitDx=0;exitDy=0;entryX=1;entryY=0.5;entryDx=0;entryDy=0;" edge="1" parent="1" source="nPK_Jr20QUEXBmqKb91o-56" target="nPK_Jr20QUEXBmqKb91o-40">
          <mxGeometry relative="1" as="geometry" />
        </mxCell>
        <mxCell id="nPK_Jr20QUEXBmqKb91o-56" value="&lt;b&gt;$$L_{latent}$$&lt;/b&gt;" style="rounded=0;whiteSpace=wrap;html=1;fillColor=light-dark(#fde6a0, #281d00);strokeColor=none;" vertex="1" parent="1">
          <mxGeometry x="680" y="337" width="74" height="24" as="geometry" />
        </mxCell>
        <mxCell id="nPK_Jr20QUEXBmqKb91o-57" value="&lt;font style=&quot;font-size: 14px;&quot;&gt;Adersarial Attack&lt;/font&gt;" style="text;strokeColor=none;align=center;fillColor=none;html=1;verticalAlign=middle;whiteSpace=wrap;rounded=0;fontFamily=Garamond;fontStyle=1" vertex="1" parent="1">
          <mxGeometry x="640" y="269" width="120" height="30" as="geometry" />
        </mxCell>
        <mxCell id="nPK_Jr20QUEXBmqKb91o-61" value="&lt;div&gt;&lt;font face=&quot;Source Code Pro, DejaVu Sans Mono, Ubuntu Mono, Anonymous Pro, Droid Sans Mono, Menlo, Monaco, Consolas, Inconsolata, Courier, monospace, PingFang SC, Microsoft YaHei, sans-serif&quot;&gt;&lt;span style=&quot;font-variant-ligatures: no-common-ligatures; white-space: pre;&quot;&gt;$$Z_{N-1}^p$$&lt;/span&gt;&lt;/font&gt;&lt;/div&gt;" style="ellipse;whiteSpace=wrap;html=1;aspect=fixed;align=center;fontSize=14;strokeColor=#999999;fillColor=#97D077;" vertex="1" parent="1">
          <mxGeometry x="135.5" y="480" width="39" height="39" as="geometry" />
        </mxCell>
        <mxCell id="nPK_Jr20QUEXBmqKb91o-63" value="" style="edgeStyle=none;orthogonalLoop=1;jettySize=auto;html=1;rounded=0;" edge="1" parent="1">
          <mxGeometry width="80" relative="1" as="geometry">
            <mxPoint x="180" y="500" as="sourcePoint" />
            <mxPoint x="213.75" y="500.65" as="targetPoint" />
            <Array as="points" />
          </mxGeometry>
        </mxCell>
        <mxCell id="nPK_Jr20QUEXBmqKb91o-64" value="&lt;font face=&quot;Times New Roman&quot;&gt;Stable Diffusion&lt;/font&gt;&lt;div&gt;&lt;font face=&quot;Times New Roman&quot;&gt;Denoise&lt;/font&gt;&lt;/div&gt;" style="rounded=1;whiteSpace=wrap;html=1;fillColor=#dae8fc;strokeColor=light-dark(#a3c9ff, #1d293b);" vertex="1" parent="1">
          <mxGeometry x="220" y="480" width="160" height="40.5" as="geometry" />
        </mxCell>
        <mxCell id="nPK_Jr20QUEXBmqKb91o-65" value="&lt;font face=&quot;Times New Roman&quot;&gt;Stable Diffusion&lt;/font&gt;&lt;div&gt;&lt;font face=&quot;Times New Roman&quot;&gt;Denoise&lt;/font&gt;&lt;/div&gt;" style="rounded=1;whiteSpace=wrap;html=1;fillColor=#dae8fc;strokeColor=light-dark(#a3c9ff, #1d293b);" vertex="1" parent="1">
          <mxGeometry x="502.5" y="481.5" width="160" height="40.5" as="geometry" />
        </mxCell>
        <mxCell id="nPK_Jr20QUEXBmqKb91o-68" value="&lt;div&gt;&lt;font face=&quot;Source Code Pro, DejaVu Sans Mono, Ubuntu Mono, Anonymous Pro, Droid Sans Mono, Menlo, Monaco, Consolas, Inconsolata, Courier, monospace, PingFang SC, Microsoft YaHei, sans-serif&quot;&gt;&lt;span style=&quot;font-variant-ligatures: no-common-ligatures; white-space: pre;&quot;&gt;$$Z_{N-1}^p$$&lt;/span&gt;&lt;/font&gt;&lt;/div&gt;" style="ellipse;whiteSpace=wrap;html=1;aspect=fixed;align=center;fontSize=14;strokeColor=#999999;fillColor=#97D077;" vertex="1" parent="1">
          <mxGeometry x="700" y="480.75" width="39" height="39" as="geometry" />
        </mxCell>
        <mxCell id="nPK_Jr20QUEXBmqKb91o-69" value="" style="edgeStyle=none;orthogonalLoop=1;jettySize=auto;html=1;rounded=0;" edge="1" parent="1">
          <mxGeometry width="80" relative="1" as="geometry">
            <mxPoint x="669" y="501.4599999999999" as="sourcePoint" />
            <mxPoint x="694" y="501.78999999999996" as="targetPoint" />
            <Array as="points" />
          </mxGeometry>
        </mxCell>
        <mxCell id="nPK_Jr20QUEXBmqKb91o-70" value="" style="edgeStyle=none;orthogonalLoop=1;jettySize=auto;html=1;rounded=0;" edge="1" parent="1">
          <mxGeometry width="80" relative="1" as="geometry">
            <mxPoint x="707.5" y="478.67999999999995" as="sourcePoint" />
            <mxPoint x="708" y="450" as="targetPoint" />
            <Array as="points" />
          </mxGeometry>
        </mxCell>
        <mxCell id="nPK_Jr20QUEXBmqKb91o-72" style="edgeStyle=orthogonalEdgeStyle;rounded=0;orthogonalLoop=1;jettySize=auto;html=1;exitX=0.5;exitY=1;exitDx=0;exitDy=0;" edge="1" parent="1">
          <mxGeometry relative="1" as="geometry">
            <mxPoint x="150.79" y="329.00000000000006" as="sourcePoint" />
            <mxPoint x="341" y="340" as="targetPoint" />
            <Array as="points">
              <mxPoint x="150.79" y="340" />
              <mxPoint x="336.79" y="340" />
            </Array>
          </mxGeometry>
        </mxCell>
        <mxCell id="nPK_Jr20QUEXBmqKb91o-73" style="edgeStyle=orthogonalEdgeStyle;rounded=0;orthogonalLoop=1;jettySize=auto;html=1;exitX=0.5;exitY=0;exitDx=0;exitDy=0;entryX=-0.002;entryY=0.638;entryDx=0;entryDy=0;entryPerimeter=0;" edge="1" parent="1" source="nPK_Jr20QUEXBmqKb91o-61">
          <mxGeometry relative="1" as="geometry">
            <mxPoint x="150" y="479.25" as="sourcePoint" />
            <mxPoint x="340" y="359.43000000000006" as="targetPoint" />
            <Array as="points">
              <mxPoint x="155" y="359" />
            </Array>
          </mxGeometry>
        </mxCell>
        <mxCell id="nPK_Jr20QUEXBmqKb91o-75" value="" style="edgeStyle=none;orthogonalLoop=1;jettySize=auto;html=1;rounded=0;" edge="1" parent="1">
          <mxGeometry width="80" relative="1" as="geometry">
            <mxPoint x="437.25" y="480.74999999999994" as="sourcePoint" />
            <mxPoint x="437.75" y="452.07" as="targetPoint" />
            <Array as="points" />
          </mxGeometry>
        </mxCell>
        <mxCell id="nPK_Jr20QUEXBmqKb91o-60" value="&lt;div&gt;&lt;font face=&quot;Source Code Pro, DejaVu Sans Mono, Ubuntu Mono, Anonymous Pro, Droid Sans Mono, Menlo, Monaco, Consolas, Inconsolata, Courier, monospace, PingFang SC, Microsoft YaHei, sans-serif&quot;&gt;&lt;span style=&quot;font-variant-ligatures: no-common-ligatures; white-space: pre;&quot;&gt;$$Z_{N-1}^p$$&lt;/span&gt;&lt;/font&gt;&lt;/div&gt;" style="ellipse;whiteSpace=wrap;html=1;aspect=fixed;align=center;fontSize=14;strokeColor=#999999;fillColor=#97D077;" vertex="1" parent="1">
          <mxGeometry x="418" y="483" width="37" height="37" as="geometry" />
        </mxCell>
        <mxCell id="nPK_Jr20QUEXBmqKb91o-66" value="" style="edgeStyle=none;orthogonalLoop=1;jettySize=auto;html=1;rounded=0;" edge="1" parent="1">
          <mxGeometry width="80" relative="1" as="geometry">
            <mxPoint x="470.5" y="497.7099999999999" as="sourcePoint" />
            <mxPoint x="495.5" y="498.03999999999996" as="targetPoint" />
            <Array as="points" />
          </mxGeometry>
        </mxCell>
        <mxCell id="nPK_Jr20QUEXBmqKb91o-67" value="" style="edgeStyle=none;orthogonalLoop=1;jettySize=auto;html=1;rounded=0;" edge="1" parent="1">
          <mxGeometry width="80" relative="1" as="geometry">
            <mxPoint x="387.5" y="499.3399999999999" as="sourcePoint" />
            <mxPoint x="412.5" y="499.66999999999996" as="targetPoint" />
            <Array as="points" />
          </mxGeometry>
        </mxCell>
        <mxCell id="nPK_Jr20QUEXBmqKb91o-79" value="" style="edgeStyle=none;orthogonalLoop=1;jettySize=auto;html=1;rounded=0;strokeColor=#FF0000;dashed=1;" edge="1" parent="1">
          <mxGeometry width="80" relative="1" as="geometry">
            <mxPoint x="450" y="452.82" as="sourcePoint" />
            <mxPoint x="450.5" y="481.49999999999994" as="targetPoint" />
            <Array as="points" />
          </mxGeometry>
        </mxCell>
      </root>
    </mxGraphModel>
  </diagram>
</mxfile>
